<svg xmlns="http://www.w3.org/2000/svg" viewBox="0 0 200 72">
  <rect width="200" height="72" fill="#1A1A2E" rx="6"/>
  <defs>
    <clipPath id="shield-clip">
      <path d="M14 16 L52 16 L52 52 Q52 62 33 66 Q14 62 14 52 Z"/>
    </clipPath>
  </defs>
  <path d="M14 16 L52 16 L52 52 Q52 62 33 66 Q14 62 14 52 Z" fill="#012169"/>
  <line x1="14" y1="16" x2="52" y2="66" stroke="white" stroke-width="5" clip-path="url(#shield-clip)"/>
  <line x1="52" y1="16" x2="14" y2="66" stroke="white" stroke-width="5" clip-path="url(#shield-clip)"/>
  <line x1="14" y1="16" x2="52" y2="66" stroke="#CF142B" stroke-width="3" clip-path="url(#shield-clip)"/>
  <line x1="52" y1="16" x2="14" y2="66" stroke="#CF142B" stroke-width="3" clip-path="url(#shield-clip)"/>
  <rect x="14" y="37" width="38" height="6" fill="white" clip-path="url(#shield-clip)"/>
  <rect x="14" y="38.5" width="38" height="3" fill="#CF142B" clip-path="url(#shield-clip)"/>
  <rect x="31" y="16" width="4" height="50" fill="white" clip-path="url(#shield-clip)"/>
  <rect x="32" y="16" width="2" height="50" fill="#CF142B" clip-path="url(#shield-clip)"/>
  <text x="130" y="28" fill="white" font-size="11" text-anchor="middle" font-family="Arial,sans-serif" font-weight="bold">Made in</text>
  <text x="130" y="46" fill="#CF142B" font-size="14" text-anchor="middle" font-family="Arial,sans-serif" font-weight="900">Britain</text>
  <text x="130" y="62" fill="#8899AA" font-size="8" text-anchor="middle" font-family="Arial,sans-serif">Endorsed Organisation</text>
</svg>
